<svg width="48" height="48" viewBox="0 0 48 48" fill="none" xmlns="http://www.w3.org/2000/svg">
    <path d="M44 0H4C1.79086 0 0 1.79086 0 4V44C0 46.2091 1.79086 48 4 48H44C46.2091 48 48 46.2091 48 44V4C48 1.79086 46.2091 0 44 0Z" fill="#00396B" />
    <path fill-rule="evenodd" clip-rule="evenodd" d="M21.3197 31.2307C21.2913 31.293 21.263 31.344 21.2403 31.4063C20.8894 32.3935 20.8653 33.4674 21.1714 34.4694C21.4775 35.4714 22.0977 36.3484 22.9403 36.971C24.0737 37.8437 24.2833 38.212 24.17 39.0393C24.0465 39.7378 23.7845 40.4044 23.3993 41C17.556 40.8071 11.8801 39.0007 7 35.781V33.163C7 32.5113 7.034 31.871 7.07367 31.2307H21.3197ZM40.9263 31.2307C40.966 31.871 41 32.5113 41 33.163V35.781C36.6878 38.6208 31.7504 40.371 26.6123 40.881C26.7923 40.4165 26.9215 39.9339 26.9977 39.4417C27.3717 36.801 25.7 35.475 24.697 34.7213C24.3333 34.4743 24.0594 34.116 23.9164 33.7002C23.7734 33.2845 23.7689 32.8335 23.9037 32.415C24.0757 31.9947 24.2983 31.597 24.5667 31.2307H40.9263ZM21.518 19.4667L24.6347 24.0567L21.6937 28.3917H15.4603L21.518 19.4667ZM24 7C28.3671 8.84714 32.1884 11.7819 35.0998 15.5245C38.0112 19.2672 39.9157 23.693 40.6317 28.3803H36.4667L30.2333 19.2457C30.0954 19.0637 29.9172 18.9161 29.7127 18.8145C29.5082 18.7129 29.283 18.6601 29.0547 18.6601C28.8263 18.6601 28.6011 18.7129 28.3966 18.8145C28.1921 18.9161 28.0139 19.0637 27.876 19.2457L26.3347 21.5123L22.6967 16.1233C22.5587 15.9414 22.3805 15.7938 22.1761 15.6922C21.9716 15.5906 21.7463 15.5377 21.518 15.5377C21.2897 15.5377 21.0644 15.5906 20.8599 15.6922C20.6555 15.7938 20.4773 15.9414 20.3393 16.1233L12.0093 28.3803H7.36833C8.08435 23.693 9.98879 19.2672 12.9002 15.5245C15.8116 11.7819 19.6329 8.84714 24 7ZM29.1 22.5833L33.0383 28.3803H25.1333L29.1 22.5833Z" fill="white" />
</svg>